<?xml version="1.0" encoding="UTF-8"?>
<svg version="1.1" xmlns="http://www.w3.org/2000/svg">
<path d="M0 0 C22.44 0 44.88 0 68 0 C68 2.64 68 5.28 68 8 C45.56 8 23.12 8 0 8 C0 5.36 0 2.72 0 0 Z " fill="#FFFFFF" transform="translate(0,48)"/>
<path d="M0 0 C22.44 0 44.88 0 68 0 C68 2.64 68 5.28 68 8 C45.56 8 23.12 8 0 8 C0 5.36 0 2.72 0 0 Z " fill="#FFFFFF" transform="translate(0,0)"/>
<path d="M0 0 C17.16 0 34.32 0 52 0 C52 2.64 52 5.28 52 8 C34.84 8 17.68 8 0 8 C0 5.36 0 2.72 0 0 Z " fill="#FFFFFF" transform="translate(0,24)"/>
</svg>
